<svg version="1.1" id="Layer_1" xmlns="http://www.w3.org/2000/svg" xmlns:xlink="http://www.w3.org/1999/xlink" x="0px" y="0px"
	 width="100%" viewBox="0 0 64 64" enable-background="new 0 0 64 64" xml:space="preserve">
<path fill="#000000" opacity="1.000000" stroke="none" 
	d="
M65.000000,51.000000 
	C65.000000,55.657345 65.000000,60.314693 65.000000,64.979034 
	C43.718601,64.986023 22.437191,64.986023 1.077890,64.986023 
	C1.077890,43.761429 1.077890,22.522518 1.077890,1.141799 
	C22.332664,1.141799 43.666199,1.141799 65.000000,1.141799 
	C65.000000,6.077590 65.000000,11.067597 64.616936,16.875721 
	C62.641712,17.462561 61.050137,17.035021 59.457298,17.030268 
	C42.966049,16.981047 26.474594,17.000002 9.983196,17.000000 
	C7.720323,16.999998 5.457449,17.000000 3.291859,17.000000 
	C3.291859,28.658604 3.291859,39.727722 3.291859,51.000000 
	C13.889825,51.000000 24.197153,51.000000 34.504482,51.000000 
	C44.669655,51.000000 54.834827,51.000000 65.000000,51.000000 
z"/>
<path fill="#FFFFFF" opacity="1.000000" stroke="none" 
	d="
M65.000000,50.531342 
	C54.834827,51.000000 44.669655,51.000000 34.504482,51.000000 
	C24.197153,51.000000 13.889825,51.000000 3.291859,51.000000 
	C3.291859,39.727722 3.291859,28.658604 3.291859,17.000000 
	C5.457449,17.000000 7.720323,16.999998 9.983196,17.000000 
	C26.474594,17.000002 42.966049,16.981047 59.457298,17.030268 
	C61.050137,17.035021 62.641712,17.462561 64.616936,17.346920 
	C65.000000,28.020895 65.000000,39.041790 65.000000,50.531342 
M41.612900,36.908535 
	C41.741455,34.937973 42.230888,32.912163 41.939053,31.005959 
	C40.250576,19.977125 37.183144,16.051298 26.292755,18.610828 
	C26.292755,28.379135 26.292755,38.116119 26.292755,47.831486 
	C37.277119,48.330803 40.750462,45.865391 41.612900,36.908535 
M16.955780,18.686907 
	C14.490848,17.190899 13.544317,18.327751 12.972364,20.753517 
	C11.097204,28.706448 9.040929,36.617039 7.214909,44.580738 
	C6.981903,45.596935 7.699613,46.831123 7.976884,47.964325 
	C8.652308,47.170017 9.630039,46.480019 9.946795,45.561958 
	C10.919165,42.743721 11.638215,39.838085 12.395741,37.177193 
	C14.756729,37.177193 16.714272,37.177193 18.637775,37.177193 
	C20.012306,45.753487 20.930328,47.539009 24.169582,47.440922 
	C21.768751,38.092525 19.384327,28.808008 16.955780,18.686907 
M47.003117,19.750301 
	C47.002136,28.235674 46.949566,36.721802 47.073471,45.205345 
	C47.087082,46.137367 48.113232,47.054596 48.669754,47.978687 
	C49.113029,47.106411 49.892891,46.251362 49.938572,45.358742 
	C50.096771,42.267586 49.999577,39.163357 49.999577,35.927010 
	C54.255512,36.157494 58.602177,36.324211 59.370159,31.901680 
	C60.029945,28.102228 60.083794,23.227026 58.197014,20.207623 
	C55.962814,16.632250 51.062019,17.367094 47.003117,19.750301 
z"/>
<path fill="#000000" opacity="1.000000" stroke="none" 
	d="
M41.332527,37.242378 
	C40.750462,45.865391 37.277119,48.330803 26.292755,47.831486 
	C26.292755,38.116119 26.292755,28.379135 26.292755,18.610828 
	C37.183144,16.051298 40.250576,19.977125 41.939053,31.005959 
	C42.230888,32.912163 41.741455,34.937973 41.332527,37.242378 
M38.000000,35.321465 
	C37.999825,32.665119 38.122379,30.001846 37.972874,27.353931 
	C37.696621,22.461115 34.307045,19.891529 29.183500,20.545862 
	C29.183500,28.975983 29.183500,37.407715 29.183500,45.840153 
	C35.645329,45.734928 37.939201,43.184986 38.000000,35.321465 
z"/>
<path fill="#000000" opacity="1.000000" stroke="none" 
	d="
M16.977840,19.105198 
	C19.384327,28.808008 21.768751,38.092525 24.169582,47.440922 
	C20.930328,47.539009 20.012306,45.753487 18.637775,37.177193 
	C16.714272,37.177193 14.756729,37.177193 12.395741,37.177193 
	C11.638215,39.838085 10.919165,42.743721 9.946795,45.561958 
	C9.630039,46.480019 8.652308,47.170017 7.976885,47.964325 
	C7.699613,46.831123 6.981903,45.596935 7.214909,44.580738 
	C9.040929,36.617039 11.097204,28.706448 12.972364,20.753517 
	C13.544317,18.327751 14.490848,17.190899 16.977840,19.105198 
M15.646722,25.347565 
	C14.593845,28.361769 13.540969,31.375973 12.386304,34.681580 
	C14.890751,34.681580 16.401991,34.681580 17.869131,34.681580 
	C17.195692,31.610743 16.586943,28.834896 15.646722,25.347565 
z"/>
<path fill="#000000" opacity="1.000000" stroke="none" 
	d="
M47.024662,19.275730 
	C51.062019,17.367094 55.962814,16.632250 58.197014,20.207623 
	C60.083794,23.227026 60.029945,28.102228 59.370159,31.901680 
	C58.602177,36.324211 54.255512,36.157494 49.999577,35.927010 
	C49.999577,39.163357 50.096771,42.267586 49.938572,45.358742 
	C49.892891,46.251362 49.113029,47.106411 48.669754,47.978687 
	C48.113232,47.054596 47.087082,46.137367 47.073471,45.205345 
	C46.949566,36.721802 47.002136,28.235674 47.024662,19.275730 
M56.130833,22.691078 
	C54.333282,21.621817 52.535732,20.552557 50.320694,19.234959 
	C50.320694,24.853096 50.320694,29.364950 50.320694,33.927872 
	C56.979477,32.543396 57.389072,31.833965 56.130833,22.691078 
z"/>
<path fill="#FFFFFF" opacity="1.000000" stroke="none" 
	d="
M38.000000,35.780960 
	C37.939201,43.184986 35.645329,45.734928 29.183500,45.840153 
	C29.183500,37.407715 29.183500,28.975983 29.183500,20.545862 
	C34.307045,19.891529 37.696621,22.461115 37.972874,27.353931 
	C38.122379,30.001846 37.999825,32.665119 38.000000,35.780960 
z"/>
<path fill="#FFFFFF" opacity="1.000000" stroke="none" 
	d="
M15.812458,25.703308 
	C16.586943,28.834896 17.195692,31.610743 17.869131,34.681580 
	C16.401991,34.681580 14.890751,34.681580 12.386304,34.681580 
	C13.540969,31.375973 14.593845,28.361769 15.812458,25.703308 
z"/>
<path fill="#FFFFFF" opacity="1.000000" stroke="none" 
	d="
M56.450901,22.967840 
	C57.389072,31.833965 56.979477,32.543396 50.320694,33.927872 
	C50.320694,29.364950 50.320694,24.853096 50.320694,19.234959 
	C52.535732,20.552557 54.333282,21.621817 56.450901,22.967840 
z"/>
</svg>